<svg xmlns="http://www.w3.org/2000/svg" viewBox="0 0 595 488" fill="none" xmlns:v="https://vecta.io/nano"><path fill-rule="evenodd" d="M306.6 6.2C340-3.6 383-3.7 409 19.7c27.8 25 21.8 58.6 48.5 84.8 32.4 31.8 79 34 108 69 26.3 31.8 44 93.5 13.5 121.4-42 38.8-68 31.7-114.5 65.2-30 21.6-27.6 54.5-44.6 87.3-20.3 39.4-42 35-86 39.5-42 4.4-77-47.6-115.4-65.8-38.6-18.3-90.8 15.2-124.3-11.3-50.3-39.8-80.5-85-89.8-128C-4.8 239-1.2 200 30 169.3c38.2-37.5 86.4-26.8 134.5-50.3a230 230 0 0 0 64.9-47c23.5-25 44.4-56.2 77.2-65.8z" fill="url(#pattern0_171_774)"/></svg>