<svg xmlns="http://www.w3.org/2000/svg" viewBox="0 0 622 527" fill="none" xmlns:v="https://vecta.io/nano"><path fill-rule="evenodd" d="M616 290.5c-15 44-82 15.3-107 54.5-21 32.8 10.7 124.4-21.4 146.4-33.2 22.8-74-29.6-114-23.4-36 5.6-116.2 70.8-149.8 57-37-15.3-39.8-54.4-75.8-72-51.5-25-113 17.6-140.3-32.7-26.4-49 30.8-88.6 31.8-144.3 1-54-33.8-59.3-27-113 5.4-44 77.7-40 119.7-54.5 32.2-11.2 68.4-5.8 98.8-21C273.3 66 348.7-14.7 393 2.3c48.4 18.6 42.5 71.7 81.4 106 36 31.7 69.4 29.7 106.6 60a119 119 0 0 1 34.9 122.2z" fill="url(#pattern0_171_775)"/></svg>