<svg xmlns="http://www.w3.org/2000/svg" viewBox="0 0 576 489" fill="none" xmlns:v="https://vecta.io/nano"><path fill-rule="evenodd" d="M336.7 1.3c73-12.4 63.8 68.5 97.5 84 33.4 15.2 57.4-22 86.8 0 27.2 20.4 17.2 64.6 26.6 97.3 9 31.6 30.7 60.7 28.2 93.5-2.5 33-16 68.4-42 88.5-27 21-74-2.4-99.5 20.5-29.8 26.7-22.3 68-54.8 91.3-28.2 20.4-72.2 13.6-103.3-2-31.5-15.8-55-46.4-85.5-64-35.7-20.4-122.3 1-154-25.5C7.4 360.4 1 315.8 0 277.6-1 240 53.7 208.3 64.6 172.3 75.7 135.8 89.2 73 125 59.5c46.7-17.7 86.2 31.5 134 17 39.5-12 37-68.3 77.7-75.2z" fill="url(#pattern0_171_776)"/></svg>