<svg xmlns="http://www.w3.org/2000/svg" viewBox="0 0 538 450" fill="none" xmlns:v="https://vecta.io/nano"><path fill-rule="evenodd" d="M448 125.5c-7.5-30.6-19-56.8-46-73-14.7-8.8-40.8-2-66.4 4.6-21 5.5-42 10.8-55.6 7.3-16-4.2-30-19.3-43.3-33.7C219 11.4 202-6.8 182.5 3.6c-31.5 16.8-44.3 50.7-57 84.5l-8.3 21.5c-8.3 20.3-27 34-44.7 47.2L71 158c-34.6 25.7-54.8 46.2-69 87-7.3 20.8 9.3 38.3 26.5 56.3 10.7 11.2 21.6 22.6 27 35.2 5.5 12.7 6.4 28.6 7.3 44.3C64 406 65.5 430.5 86 439c23 9.6 43.7 2 65.3-6 16.4-6 33.3-12.2 52-11.2 13.5.7 25.3 7.3 37 13.8 13.4 7.5 26.5 15 42 13 16-2 35.6-14.4 55-26.5 16.2-10.2 32-20 45-23.6 19.5-5 38-1.2 56 2.6 21.8 4.6 43 9 64.2-2.6 31.5-17.3 41-68.4 29.8-102.5-8-24.4-25-44.8-42-65.2a348 348 0 0 1-29.3-38.7c-8-13-9-26.4-9.8-40.4a148 148 0 0 0-3.4-26.5z" fill="url(#pattern0_572_36)"/></svg>