<svg xmlns="http://www.w3.org/2000/svg" viewBox="0 0 596 447" fill="none" xmlns:v="https://vecta.io/nano"><path fill-rule="evenodd" d="M250.4 24.6C232 14.5 214 4.4 192.5 8 169 12.2 153 37.3 137.2 62c-9.7 15-19.2 30-30.2 39.6-13.4 11.8-29.4 19-44.7 26-23 10.4-44.5 20.2-54 43.6-13.2 32-6.2 65.3.6 97.7l4.3 21.5 3.7 27.6c3.6 32 7.3 65.2 32.5 82.8 20.4 14.2 50.5 9 81 4 22-3.7 43.8-7.4 62.3-4 15.5 3 27.3 12 39 20.8 12.4 9.5 24.8 19 41.5 21 33.8 4.3 71.3 8 103.3-8 17.6-9 29.7-22.3 42-36 10.2-11.3 20.6-22.8 34.2-31.8 16-10.6 40-12.5 63.5-14.4 30-2.4 59.5-4.8 72-25 12.3-20 1.4-39.7-9.8-60.2-8.3-15-16.8-30.6-16.3-46.7.5-16.5 8.8-33 17-49 10-19.8 20-39.3 15.4-58.3-8-34-43.8-54-75.2-71-29.4-15.8-85.5-45-121.3-41.7-16.6 1.6-31.5 11.2-46.3 21-15.6 10-31.2 20.2-48.5 20.8-19.3.7-36-8.5-52.4-17.7z" fill="url(#pattern0_572_38)"/></svg>