<svg xmlns="http://www.w3.org/2000/svg" xmlns:xlink="http://www.w3.org/1999/xlink" viewBox="0 0 622 527" fill="none">
<path fill-rule="evenodd" clip-rule="evenodd" d="M616.064 290.473C601.081 334.548 534.081 305.779 509 345C488.04 377.778 519.661 469.388 487.577 491.403C454.339 514.208 413.451 461.766 373.624 468C337.618 473.636 257.472 538.784 223.79 524.867C186.819 509.591 184.004 470.432 148 453C96.4827 428.057 34.8817 470.64 7.73246 420.259C-18.6925 371.223 38.4977 331.691 39.5001 276C40.4745 221.861 5.7495 216.659 12.3644 162.916C17.7873 118.857 90.1038 122.916 132.062 108.392C164.305 97.2299 200.423 102.584 230.909 87.2625C273.346 65.936 348.743 -14.6833 393.081 2.34363C441.528 20.9485 435.59 74.058 474.5 108.392C510.437 140.102 543.852 138.137 581.124 168.268C614.495 195.244 629.874 249.851 616.064 290.473Z" fill="url(#pattern0_171_775)"/>
</svg>