<svg xmlns="http://www.w3.org/2000/svg" xmlns:xlink="http://www.w3.org/1999/xlink" viewBox="0 0 576 489" fill="none">
<path fill-rule="evenodd" clip-rule="evenodd" d="M336.694 1.29014C409.734 -11.1269 400.456 69.7997 434.237 85.1733C467.589 100.352 491.682 63.2266 521.014 85.1732C548.254 105.554 538.22 149.798 547.601 182.472C556.686 214.115 578.297 243.177 575.801 276C573.297 308.923 559.942 344.361 533.755 364.519C506.635 385.395 459.733 362.148 434.237 384.974C404.418 411.671 411.892 452.876 379.438 476.309C351.225 496.681 307.271 489.918 276.149 474.332C244.641 458.553 221.211 427.932 190.63 410.43C154.907 389.984 68.2974 411.367 36.7257 384.974C7.35368 360.42 1.11725 315.792 0.0158082 277.556C-1.06556 240.017 53.6558 208.281 64.5613 172.341C75.6546 135.78 89.2365 73.0613 125 59.5001C171.675 41.8012 211.243 91.0385 259 76.5001C298.538 64.4638 295.946 8.21732 336.694 1.29014Z" fill="url(#pattern0_171_776)"/>
</svg>