<svg xmlns="http://www.w3.org/2000/svg" xmlns:xlink="http://www.w3.org/1999/xlink" viewBox="0 0 595 488" fill="none">
<path fill-rule="evenodd" clip-rule="evenodd" d="M306.606 6.18532C340.073 -3.55745 383.082 -3.67462 408.966 19.697C436.741 44.777 430.794 78.2803 457.5 104.5C489.883 136.293 536.563 138.405 565.494 173.378C591.771 205.144 609.344 266.882 579.04 294.821C536.966 333.609 510.915 326.544 464.5 360C434.568 381.575 436.869 414.493 419.942 447.304C399.596 486.742 378.013 482.176 333.928 486.814C291.781 491.247 256.792 439.184 218.5 421C179.913 402.676 127.717 436.202 94.2186 409.676C43.9265 369.852 13.7122 324.593 4.44489 281.741C-4.7896 239.04 -1.16578 199.911 29.9877 169.325C68.2202 131.788 116.373 142.496 164.5 119C187.974 107.54 211.469 91.0023 229.387 71.976C252.868 47.0421 273.742 15.7526 306.606 6.18532Z" fill="url(#pattern0_171_774)"/>
</svg>