<svg xmlns="http://www.w3.org/2000/svg" xmlns:xlink="http://www.w3.org/1999/xlink" viewBox="0 0 538 450" fill="none">
<path fill-rule="evenodd" clip-rule="evenodd" d="M448 125.5C440.48 94.9355 429 68.7316 401.976 52.5927C387.265 43.8071 361.135 50.5623 335.533 57.1811C314.394 62.646 293.615 68.0179 279.919 64.4732C263.872 60.3202 249.979 45.2206 236.655 30.739C218.863 11.4019 202.084 -6.83349 182.547 3.5652C150.997 20.3579 138.287 54.248 125.588 88.1109C122.877 95.338 120.167 102.564 117.275 109.622C108.966 129.895 90.251 143.749 72.5749 156.834C72.0489 157.223 71.5238 157.612 71 158C36.3613 183.666 16.1849 204.211 1.8933 244.884C-5.40959 265.668 11.2306 283.154 28.3955 301.192C39.069 312.408 49.9455 323.838 55.3941 336.406C60.8897 349.083 61.7949 365.05 62.6829 380.716C64.1165 406.004 65.5054 430.504 86.0889 439.094C109.07 448.685 129.765 441.126 151.387 433.227C167.761 427.246 184.666 421.071 203.5 422C217.027 422.668 228.762 429.268 240.351 435.786C253.716 443.303 266.887 450.71 282.387 448.781C298.255 446.806 318.035 434.417 337.356 422.315C353.592 412.145 369.504 402.179 382.5 398.764C401.983 393.645 420.512 397.566 438.577 401.389C460.36 405.999 481.467 410.466 502.755 398.764C534.287 381.431 543.809 330.402 532.532 296.232C524.477 271.824 507.503 251.442 490.547 231.082C480.051 218.479 469.563 205.885 461.201 192.35C453.128 179.282 452.268 165.953 451.365 151.975C450.813 143.423 450.245 134.627 448 125.5Z" fill="url(#pattern0_572_36)"/>
</svg>