<svg xmlns="http://www.w3.org/2000/svg" xmlns:xlink="http://www.w3.org/1999/xlink" viewBox="0 0 596 447" fill="none">
<path fill-rule="evenodd" clip-rule="evenodd" d="M250.391 24.6464C232.043 14.4732 213.863 4.39273 192.451 8.1333C169.068 12.2183 152.967 37.2995 137.19 61.8776C127.537 76.9144 118.005 91.7629 107 101.5C93.6141 113.344 77.6364 120.593 62.2626 127.569C39.3548 137.963 17.7878 147.748 8.13272 171.219C-5.06633 203.305 1.89586 236.483 8.69599 268.889C10.2097 276.103 11.7153 283.278 12.9888 290.395C14.569 299.225 15.6161 308.563 16.6731 317.989C20.2703 350.069 23.9823 383.172 49.2132 400.785C69.567 414.993 99.7349 409.886 130.107 404.745C151.979 401.043 173.957 397.322 192.451 400.785C207.991 403.694 219.755 412.676 231.473 421.624C243.879 431.095 256.233 440.528 272.962 442.676C306.732 447.011 344.253 450.825 376.306 434.653C393.876 425.789 405.993 412.373 418.266 398.784C428.489 387.466 438.82 376.027 452.5 367C468.547 356.41 492.401 354.499 515.972 352.61C545.95 350.208 575.472 347.843 587.899 327.709C600.175 307.82 589.317 288.005 578.097 267.531C569.818 252.423 561.342 236.955 561.82 220.834C562.308 204.348 570.637 187.952 578.876 171.732C588.916 151.968 598.823 132.467 594.246 113.387C586.111 79.4752 550.459 59.2537 519 42.331C489.556 26.4925 433.513 -2.81288 397.654 0.603169C381.103 2.17984 366.187 11.8512 351.322 21.4894C335.713 31.6105 320.16 41.6951 302.829 42.331C283.562 43.0381 266.909 33.8047 250.391 24.6464Z" fill="url(#pattern0_572_38)"/>
</svg>