<svg xmlns="http://www.w3.org/2000/svg" viewBox="0 0 38 46" fill="none">
  <g clip-path="url(#clip0_429_1357)">
    <path d="M1.05566 16.7767V30.3677C1.05566 32.4091 3.3427 34.898 4.22233 35.0723C8.97233 40.8223 12.139 44.9546 19.5279 44.9546C27.9723 44.9546 33.4261 38.0344 34.8334 34.5496C36.5223 34.9678 36.9445 31.8864 36.9445 30.8904V17.8223C36.9445 4.44043 25.3334 1.09497 19.0001 1.09496C15.2001 0.676774 12.139 3.01162 11.0834 4.23132C3.48344 4.23132 1.05566 15.2087 1.05566 16.7767Z" fill="#34B3CF" stroke="#34B3CF"/>
    <path d="M3.1665 30.3678V25.1405C4.43317 25.1405 5.80539 24.6178 5.80539 24.6178C6.33317 24.0455 8.26835 13.8147 8.44428 9.45862C12.2443 9.45862 14.6017 12.2465 14.7776 13.6405C16.4665 23.6768 24.2776 26.1859 28.4998 26.1859H34.6753V30.3678C34.5489 31.6223 32.6167 32.2844 31.6665 32.4587C30.9628 36.1178 27.4443 43.3314 18.9998 42.9132C10.5554 42.495 7.03688 35.7692 6.33317 32.4587C5.0665 32.4587 3.1665 31.3637 3.1665 30.3678Z" fill="#E5EBEA" stroke="#34B3CF"/>
    <path d="M20.6891 31.3636H16.8891L15.8335 33.9773C18.1344 34.4399 19.4048 34.4334 21.6391 33.9773L20.6891 31.3636Z" fill="#34B3CF" stroke="#34B3CF"/>
  </g>
  <defs>
    <clipPath id="clip0_429_1357">
      <rect width="38" height="46" fill="white"/>
    </clipPath>
  </defs>
</svg>