<svg xmlns="http://www.w3.org/2000/svg" width="100%" viewBox="0 0 512 512" height="150" xmlns:v="https://vecta.io/nano"><path fill="#34b3cf" d="M336 26c5.8-3.7 11.6-6.8 16.4-11 13.4-12 26.7-2 31.5 9l23 53.7 26.3 62c5.3 12.6 11.4 25 15.7 37.8 3.3 10 1.4 15.8-6.2 22.7a172 172 0 0 1-68.2 38.1c-11.8 3.5-23.8 6-36.2 5.8l-30.3-1a116 116 0 0 0-78.5 26.8c-14 12-24.7 26.2-33 42.4a10 10 0 0 0 0 7.6l41.8 91 26.7 58c2.3 5.2 5.2 10.2 5.4 16.6.2 10-7 17-13.8 18.4-12.5 2.5-19.5-3.4-23-11.4L214 450l-39-85.2-41.4-90.5-21-45L76 149l-11.6-25.3c-3.8-9.4 2-21 11.8-24.4 10-3.5 20.5 1.6 24.6 11l6.6 15.5L121 105a121 121 0 0 1 72.8-49.8c11.4-2.6 23.5-2.6 35.3-3.2 6-.3 12.2.7 18.3 1 21.5.6 41.8-4.6 61.3-13 9.2-4 18-9.2 27.2-14z"/></svg>