<svg xmlns="http://www.w3.org/2000/svg" width="469" height="72" viewBox="0 0 469 72" fill="none">
  <path d="M1.11612 61.1161C0.627961 61.6043 0.627961 62.3957 1.11612 62.8839L9.07107 70.8388C9.55922 71.327 10.3507 71.327 10.8388 70.8388C11.327 70.3507 11.327 69.5592 10.8388 69.0711L3.76777 62L10.8388 54.9289C11.327 54.4408 11.327 53.6493 10.8388 53.1612C10.3507 52.673 9.55922 52.673 9.07107 53.1612L1.11612 61.1161ZM372.234 3.25C395.12 3.25 416.277 6.98042 432.688 12.5585C440.895 15.3478 447.887 18.5899 453.307 22.0389C458.747 25.5011 462.505 29.1106 464.378 32.5921C466.21 35.9991 466.24 39.2597 464.27 42.3426C462.234 45.5294 457.96 48.6853 450.793 51.4593C436.484 56.998 411.346 60.75 372.234 60.75V63.25C411.421 63.25 436.94 59.502 451.695 53.7907C459.061 50.9397 463.921 47.533 466.377 43.6887C468.9 39.7403 468.781 35.5009 466.579 31.4079C464.418 27.3894 460.257 23.4989 454.649 19.9298C449.02 16.3476 441.836 13.0272 433.493 10.1915C416.806 4.51958 395.375 0.75 372.234 0.75V3.25ZM372.234 60.75C371.923 60.75 371.612 60.75 371.301 60.75C370.99 60.75 370.679 60.75 370.368 60.75C370.057 60.75 369.746 60.75 369.435 60.75C369.125 60.75 368.814 60.75 368.503 60.75C368.193 60.75 367.882 60.75 367.572 60.75C367.261 60.75 366.951 60.75 366.641 60.75C366.33 60.75 366.02 60.75 365.71 60.75C365.4 60.75 365.09 60.75 364.78 60.75C364.47 60.75 364.16 60.75 363.85 60.75C363.54 60.75 363.23 60.75 362.92 60.75C362.611 60.75 362.301 60.75 361.991 60.75C361.682 60.75 361.372 60.75 361.063 60.75C360.754 60.75 360.444 60.75 360.135 60.75C359.826 60.75 359.516 60.75 359.207 60.75C358.898 60.75 358.589 60.75 358.28 60.75C357.971 60.75 357.662 60.75 357.354 60.75C357.045 60.75 356.736 60.75 356.427 60.75C356.119 60.75 355.81 60.75 355.502 60.75C355.193 60.75 354.885 60.75 354.576 60.75C354.268 60.75 353.96 60.75 353.651 60.75C353.343 60.75 353.035 60.75 352.727 60.75C352.419 60.75 352.111 60.75 351.803 60.75C351.495 60.75 351.187 60.75 350.88 60.75C350.572 60.75 350.264 60.75 349.957 60.75C349.649 60.75 349.342 60.75 349.034 60.75C348.727 60.75 348.42 60.75 348.112 60.75C347.805 60.75 347.498 60.75 347.191 60.75C346.884 60.75 346.577 60.75 346.27 60.75C345.963 60.75 345.656 60.75 345.349 60.75C345.043 60.75 344.736 60.75 344.429 60.75C344.123 60.75 343.816 60.75 343.51 60.75C343.203 60.75 342.897 60.75 342.591 60.75C342.284 60.75 341.978 60.75 341.672 60.75C341.366 60.75 341.06 60.75 340.754 60.75C340.448 60.75 340.142 60.75 339.837 60.75C339.531 60.75 339.225 60.75 338.919 60.75C338.614 60.75 338.308 60.75 338.003 60.75C337.698 60.75 337.392 60.75 337.087 60.75C336.782 60.75 336.477 60.75 336.171 60.75C335.866 60.75 335.561 60.75 335.256 60.75C334.952 60.75 334.647 60.75 334.342 60.75C334.037 60.75 333.733 60.75 333.428 60.75C333.123 60.75 332.819 60.75 332.515 60.75C332.21 60.75 331.906 60.75 331.602 60.75C331.297 60.75 330.993 60.75 330.689 60.75C330.385 60.75 330.081 60.75 329.777 60.75C329.473 60.75 329.17 60.75 328.866 60.75C328.562 60.75 328.259 60.75 327.955 60.75C327.652 60.75 327.348 60.75 327.045 60.75C326.742 60.75 326.438 60.75 326.135 60.75C325.832 60.75 325.529 60.75 325.226 60.75C324.923 60.75 324.62 60.75 324.317 60.75C324.014 60.75 323.712 60.75 323.409 60.75C323.107 60.75 322.804 60.75 322.502 60.75C322.199 60.75 321.897 60.75 321.595 60.75C321.292 60.75 320.99 60.75 320.688 60.75C320.386 60.75 320.084 60.75 319.782 60.75C319.48 60.75 319.179 60.75 318.877 60.75C318.575 60.75 318.274 60.75 317.972 60.75C317.671 60.75 317.369 60.75 317.068 60.75C316.766 60.75 316.465 60.75 316.164 60.75C315.863 60.75 315.562 60.75 315.261 60.75C314.96 60.75 314.659 60.75 314.358 60.75C314.058 60.75 313.757 60.75 313.456 60.75C313.156 60.75 312.855 60.75 312.555 60.75C312.255 60.75 311.954 60.75 311.654 60.75C311.354 60.75 311.054 60.75 310.754 60.75C310.454 60.75 310.154 60.75 309.854 60.75C309.555 60.75 309.255 60.75 308.955 60.75C308.656 60.75 308.356 60.75 308.057 60.75C307.757 60.75 307.458 60.75 307.159 60.75C306.86 60.75 306.56 60.75 306.261 60.75C305.962 60.75 305.664 60.75 305.365 60.75C305.066 60.75 304.767 60.75 304.469 60.75C304.17 60.75 303.871 60.75 303.573 60.75C303.275 60.75 302.976 60.75 302.678 60.75C302.38 60.75 302.082 60.75 301.784 60.75C301.486 60.75 301.188 60.75 300.89 60.75C300.592 60.75 300.294 60.75 299.997 60.75C299.699 60.75 299.402 60.75 299.104 60.75C298.807 60.75 298.51 60.75 298.212 60.75C297.915 60.75 297.618 60.75 297.321 60.75C297.024 60.75 296.727 60.75 296.43 60.75C296.134 60.75 295.837 60.75 295.54 60.75C295.244 60.75 294.947 60.75 294.651 60.75C294.354 60.75 294.058 60.75 293.762 60.75C293.466 60.75 293.17 60.75 292.874 60.75C292.578 60.75 292.282 60.75 291.986 60.75C291.69 60.75 291.395 60.75 291.099 60.75C290.804 60.75 290.508 60.75 290.213 60.75C289.917 60.75 289.622 60.75 289.327 60.75C289.032 60.75 288.737 60.75 288.442 60.75C288.147 60.75 287.852 60.75 287.558 60.75C287.263 60.75 286.968 60.75 286.674 60.75C286.379 60.75 286.085 60.75 285.791 60.75C285.496 60.75 285.202 60.75 284.908 60.75C284.614 60.75 284.32 60.75 284.026 60.75C283.732 60.75 283.439 60.75 283.145 60.75C282.851 60.75 282.558 60.75 282.264 60.75C281.971 60.75 281.678 60.75 281.385 60.75C281.091 60.75 280.798 60.75 280.505 60.75C280.212 60.75 279.919 60.75 279.627 60.75C279.334 60.75 279.041 60.75 278.749 60.75C278.456 60.75 278.164 60.75 277.872 60.75C277.579 60.75 277.287 60.75 276.995 60.75C276.703 60.75 276.411 60.75 276.119 60.75C275.827 60.75 275.535 60.75 275.244 60.75C274.952 60.75 274.661 60.75 274.369 60.75C274.078 60.75 273.786 60.75 273.495 60.75C273.204 60.75 272.913 60.75 272.622 60.75C272.331 60.75 272.04 60.75 271.749 60.75C271.459 60.75 271.168 60.75 270.878 60.75C270.587 60.75 270.297 60.75 270.006 60.75C269.716 60.75 269.426 60.75 269.136 60.75C268.846 60.75 268.556 60.75 268.266 60.75C267.976 60.75 267.687 60.75 267.397 60.75C267.107 60.75 266.818 60.75 266.529 60.75C266.239 60.75 265.95 60.75 265.661 60.75C265.372 60.75 265.083 60.75 264.794 60.75C264.505 60.75 264.216 60.75 263.927 60.75C263.639 60.75 263.35 60.75 263.062 60.75C262.773 60.75 262.485 60.75 262.197 60.75C261.909 60.75 261.621 60.75 261.333 60.75C261.045 60.75 260.757 60.75 260.469 60.75C260.181 60.75 259.894 60.75 259.606 60.75C259.319 60.75 259.032 60.75 258.744 60.75C258.457 60.75 258.17 60.75 257.883 60.75C257.596 60.75 257.309 60.75 257.022 60.75C256.736 60.75 256.449 60.75 256.162 60.75C255.876 60.75 255.589 60.75 255.303 60.75C255.017 60.75 254.731 60.75 254.445 60.75C254.159 60.75 253.873 60.75 253.587 60.75C253.301 60.75 253.016 60.75 252.73 60.75C252.444 60.75 252.159 60.75 251.874 60.75C251.588 60.75 251.303 60.75 251.018 60.75C250.733 60.75 250.448 60.75 250.163 60.75C249.879 60.75 249.594 60.75 249.309 60.75C249.025 60.75 248.74 60.75 248.456 60.75C248.172 60.75 247.887 60.75 247.603 60.75C247.319 60.75 247.035 60.75 246.752 60.75C246.468 60.75 246.184 60.75 245.901 60.75C245.617 60.75 245.334 60.75 245.05 60.75C244.767 60.75 244.484 60.75 244.201 60.75C243.918 60.75 243.635 60.75 243.352 60.75C243.069 60.75 242.786 60.75 242.504 60.75C242.221 60.75 241.939 60.75 241.656 60.75C241.374 60.75 241.092 60.75 240.81 60.75C240.528 60.75 240.246 60.75 239.964 60.75C239.682 60.75 239.401 60.75 239.119 60.75C238.838 60.75 238.556 60.75 238.275 60.75C237.994 60.75 237.713 60.75 237.432 60.75C237.151 60.75 236.87 60.75 236.589 60.75C236.308 60.75 236.027 60.75 235.747 60.75C235.466 60.75 235.186 60.75 234.906 60.75C234.626 60.75 234.346 60.75 234.066 60.75C233.786 60.75 233.506 60.75 233.226 60.75C232.946 60.75 232.667 60.75 232.387 60.75C232.108 60.75 231.828 60.75 231.549 60.75C231.27 60.75 230.991 60.75 230.712 60.75C230.433 60.75 230.154 60.75 229.876 60.75C229.597 60.75 229.319 60.75 229.04 60.75C228.762 60.75 228.484 60.75 228.205 60.75C227.927 60.75 227.649 60.75 227.371 60.75C227.094 60.75 226.816 60.75 226.538 60.75C226.261 60.75 225.983 60.75 225.706 60.75C225.429 60.75 225.151 60.75 224.874 60.75C224.597 60.75 224.32 60.75 224.044 60.75C223.767 60.75 223.49 60.75 223.214 60.75C222.937 60.75 222.661 60.75 222.384 60.75C222.108 60.75 221.832 60.75 221.556 60.75C221.28 60.75 221.004 60.75 220.729 60.75C220.453 60.75 220.177 60.75 219.902 60.75C219.627 60.75 219.351 60.75 219.076 60.75C218.801 60.75 218.526 60.75 218.251 60.75C217.976 60.75 217.702 60.75 217.427 60.75C217.152 60.75 216.878 60.75 216.604 60.75C216.329 60.75 216.055 60.75 215.781 60.75C215.507 60.75 215.233 60.75 214.96 60.75C214.686 60.75 214.412 60.75 214.139 60.75C213.865 60.75 213.592 60.75 213.319 60.75C213.045 60.75 212.772 60.75 212.5 60.75C212.227 60.75 211.954 60.75 211.681 60.75C211.409 60.75 211.136 60.75 210.864 60.75C210.591 60.75 210.319 60.75 210.047 60.75C209.775 60.75 209.503 60.75 209.231 60.75C208.96 60.75 208.688 60.75 208.417 60.75C208.145 60.75 207.874 60.75 207.602 60.75C207.331 60.75 207.06 60.75 206.789 60.75C206.518 60.75 206.248 60.75 205.977 60.75C205.706 60.75 205.436 60.75 205.166 60.75C204.895 60.75 204.625 60.75 204.355 60.75C204.085 60.75 203.815 60.75 203.545 60.75C203.275 60.75 203.006 60.75 202.736 60.75C202.467 60.75 202.198 60.75 201.928 60.75C201.659 60.75 201.39 60.75 201.121 60.75C200.852 60.75 200.584 60.75 200.315 60.75C200.046 60.75 199.778 60.75 199.51 60.75C199.241 60.75 198.973 60.75 198.705 60.75C198.437 60.75 198.169 60.75 197.902 60.75C197.634 60.75 197.366 60.75 197.099 60.75C196.832 60.75 196.564 60.75 196.297 60.75C196.03 60.75 195.763 60.75 195.496 60.75C195.23 60.75 194.963 60.75 194.696 60.75C194.43 60.75 194.164 60.75 193.897 60.75C193.631 60.75 193.365 60.75 193.099 60.75C192.833 60.75 192.567 60.75 192.302 60.75C192.036 60.75 191.771 60.75 191.505 60.75C191.24 60.75 190.975 60.75 190.71 60.75C190.445 60.75 190.18 60.75 189.915 60.75C189.651 60.75 189.386 60.75 189.122 60.75C188.857 60.75 188.593 60.75 188.329 60.75C188.065 60.75 187.801 60.75 187.537 60.75C187.273 60.75 187.01 60.75 186.746 60.75C186.483 60.75 186.219 60.75 185.956 60.75C185.693 60.75 185.43 60.75 185.167 60.75C184.904 60.75 184.642 60.75 184.379 60.75C184.116 60.75 183.854 60.75 183.592 60.75C183.329 60.75 183.067 60.75 182.805 60.75C182.544 60.75 182.282 60.75 182.02 60.75C181.758 60.75 181.497 60.75 181.236 60.75C180.974 60.75 180.713 60.75 180.452 60.75C180.191 60.75 179.93 60.75 179.67 60.75C179.409 60.75 179.148 60.75 178.888 60.75C178.628 60.75 178.367 60.75 178.107 60.75C177.847 60.75 177.587 60.75 177.328 60.75C177.068 60.75 176.808 60.75 176.549 60.75C176.29 60.75 176.03 60.75 175.771 60.75C175.512 60.75 175.253 60.75 174.994 60.75C174.735 60.75 174.477 60.75 174.218 60.75C173.96 60.75 173.702 60.75 173.443 60.75C173.185 60.75 172.927 60.75 172.669 60.75C172.412 60.75 172.154 60.75 171.896 60.75C171.639 60.75 171.382 60.75 171.124 60.75C170.867 60.75 170.61 60.75 170.353 60.75C170.096 60.75 169.84 60.75 169.583 60.75C169.327 60.75 169.07 60.75 168.814 60.75C168.558 60.75 168.302 60.75 168.046 60.75C167.79 60.75 167.534 60.75 167.279 60.75C167.023 60.75 166.768 60.75 166.512 60.75C166.257 60.75 166.002 60.75 165.747 60.75C165.492 60.75 165.238 60.75 164.983 60.75C164.728 60.75 164.474 60.75 164.22 60.75C163.965 60.75 163.711 60.75 163.457 60.75C163.204 60.75 162.95 60.75 162.696 60.75C162.443 60.75 162.189 60.75 161.936 60.75C161.683 60.75 161.43 60.75 161.177 60.75C160.924 60.75 160.671 60.75 160.418 60.75C160.166 60.75 159.913 60.75 159.661 60.75C159.409 60.75 159.157 60.75 158.905 60.75C158.653 60.75 158.401 60.75 158.149 60.75C157.898 60.75 157.646 60.75 157.395 60.75C157.144 60.75 156.893 60.75 156.642 60.75C156.391 60.75 156.14 60.75 155.89 60.75C155.639 60.75 155.389 60.75 155.138 60.75C154.888 60.75 154.638 60.75 154.388 60.75C154.138 60.75 153.889 60.75 153.639 60.75C153.389 60.75 153.14 60.75 152.891 60.75C152.642 60.75 152.393 60.75 152.144 60.75C151.895 60.75 151.646 60.75 151.398 60.75C151.149 60.75 150.901 60.75 150.652 60.75C150.404 60.75 150.156 60.75 149.908 60.75C149.661 60.75 149.413 60.75 149.165 60.75C148.918 60.75 148.671 60.75 148.423 60.75C148.176 60.75 147.929 60.75 147.682 60.75C147.436 60.75 147.189 60.75 146.943 60.75C146.696 60.75 146.45 60.75 146.204 60.75C145.958 60.75 145.712 60.75 145.466 60.75C145.22 60.75 144.974 60.75 144.729 60.75C144.484 60.75 144.238 60.75 143.993 60.75C143.748 60.75 143.503 60.75 143.259 60.75C143.014 60.75 142.769 60.75 142.525 60.75C142.281 60.75 142.036 60.75 141.792 60.75C141.548 60.75 141.305 60.75 141.061 60.75C140.817 60.75 140.574 60.75 140.33 60.75C140.087 60.75 139.844 60.75 139.601 60.75C139.358 60.75 139.115 60.75 138.873 60.75C138.63 60.75 138.388 60.75 138.145 60.75C137.903 60.75 137.661 60.75 137.419 60.75C137.177 60.75 136.936 60.75 136.694 60.75C136.453 60.75 136.211 60.75 135.97 60.75C135.729 60.75 135.488 60.75 135.247 60.75C135.006 60.75 134.766 60.75 134.525 60.75C134.285 60.75 134.045 60.75 133.805 60.75C133.564 60.75 133.325 60.75 133.085 60.75C132.845 60.75 132.606 60.75 132.366 60.75C132.127 60.75 131.888 60.75 131.649 60.75C131.41 60.75 131.171 60.75 130.932 60.75C130.694 60.75 130.455 60.75 130.217 60.75C129.979 60.75 129.741 60.75 129.503 60.75C129.265 60.75 129.027 60.75 128.789 60.75C128.552 60.75 128.315 60.75 128.077 60.75C127.84 60.75 127.603 60.75 127.367 60.75C127.13 60.75 126.893 60.75 126.657 60.75C126.42 60.75 126.184 60.75 125.948 60.75C125.712 60.75 125.476 60.75 125.24 60.75C125.005 60.75 124.769 60.75 124.534 60.75C124.298 60.75 124.063 60.75 123.828 60.75C123.593 60.75 123.359 60.75 123.124 60.75C122.89 60.75 122.655 60.75 122.421 60.75C122.187 60.75 121.953 60.75 121.719 60.75C121.485 60.75 121.252 60.75 121.018 60.75C120.785 60.75 120.551 60.75 120.318 60.75C120.085 60.75 119.852 60.75 119.62 60.75C119.387 60.75 119.154 60.75 118.922 60.75C118.69 60.75 118.458 60.75 118.226 60.75C117.994 60.75 117.762 60.75 117.53 60.75C117.299 60.75 117.068 60.75 116.836 60.75C116.605 60.75 116.374 60.75 116.143 60.75C115.913 60.75 115.682 60.75 115.452 60.75C115.221 60.75 114.991 60.75 114.761 60.75C114.531 60.75 114.301 60.75 114.071 60.75C113.842 60.75 113.612 60.75 113.383 60.75C113.154 60.75 112.925 60.75 112.696 60.75C112.467 60.75 112.238 60.75 112.01 60.75C111.781 60.75 111.553 60.75 111.325 60.75C111.097 60.75 110.869 60.75 110.641 60.75C110.413 60.75 110.186 60.75 109.958 60.75C109.731 60.75 109.504 60.75 109.277 60.75C109.05 60.75 108.823 60.75 108.597 60.75C108.37 60.75 108.144 60.75 107.918 60.75C107.691 60.75 107.465 60.75 107.24 60.75C107.014 60.75 106.788 60.75 106.563 60.75C106.338 60.75 106.112 60.75 105.887 60.75C105.662 60.75 105.438 60.75 105.213 60.75C104.988 60.75 104.764 60.75 104.54 60.75C104.316 60.75 104.092 60.75 103.868 60.75C103.644 60.75 103.42 60.75 103.197 60.75C102.974 60.75 102.75 60.75 102.527 60.75C102.304 60.75 102.081 60.75 101.859 60.75C101.636 60.75 101.414 60.75 101.192 60.75C100.969 60.75 100.747 60.75 100.525 60.75C100.304 60.75 100.082 60.75 99.8606 60.75C99.6392 60.75 99.4179 60.75 99.1969 60.75C98.9759 60.75 98.7551 60.75 98.5344 60.75C98.3138 60.75 98.0934 60.75 97.8732 60.75C97.6529 60.75 97.4329 60.75 97.2131 60.75C96.9933 60.75 96.7736 60.75 96.5542 60.75C96.3348 60.75 96.1156 60.75 95.8966 60.75C95.6776 60.75 95.4588 60.75 95.2402 60.75C95.0215 60.75 94.8031 60.75 94.5849 60.75C94.3667 60.75 94.1487 60.75 93.9309 60.75C93.7131 60.75 93.4955 60.75 93.2782 60.75C93.0608 60.75 92.8436 60.75 92.6266 60.75C92.4096 60.75 92.1928 60.75 91.9763 60.75C91.7597 60.75 91.5433 60.75 91.3272 60.75C91.111 60.75 90.8951 60.75 90.6793 60.75C90.4635 60.75 90.248 60.75 90.0327 60.75C89.8173 60.75 89.6022 60.75 89.3873 60.75C89.1723 60.75 88.9576 60.75 88.7431 60.75C88.5286 60.75 88.3143 60.75 88.1002 60.75C87.8861 60.75 87.6722 60.75 87.4585 60.75C87.2448 60.75 87.0313 60.75 86.818 60.75C86.6048 60.75 86.3917 60.75 86.1788 60.75C85.966 60.75 85.7533 60.75 85.5409 60.75C85.3284 60.75 85.1162 60.75 84.9042 60.75C84.6922 60.75 84.4804 60.75 84.2687 60.75C84.0571 60.75 83.8457 60.75 83.6346 60.75C83.4234 60.75 83.2124 60.75 83.0016 60.75C82.7909 60.75 82.5803 60.75 82.37 60.75C82.1596 60.75 81.9495 60.75 81.7396 60.75C81.5296 60.75 81.3199 60.75 81.1104 60.75C80.9009 60.75 80.6916 60.75 80.4826 60.75C80.2735 60.75 80.0646 60.75 79.8559 60.75C79.6473 60.75 79.4389 60.75 79.2306 60.75C79.0224 60.75 78.8144 60.75 78.6066 60.75C78.3988 60.75 78.1912 60.75 77.9838 60.75C77.7764 60.75 77.5692 60.75 77.3623 60.75C77.1553 60.75 76.9486 60.75 76.7421 60.75C76.5355 60.75 76.3292 60.75 76.1231 60.75C75.917 60.75 75.7112 60.75 75.5055 60.75C75.2998 60.75 75.0944 60.75 74.8891 60.75C74.6839 60.75 74.4789 60.75 74.2741 60.75C74.0693 60.75 73.8647 60.75 73.6603 60.75C73.4559 60.75 73.2517 60.75 73.0478 60.75C72.8439 60.75 72.6401 60.75 72.4366 60.75C72.2331 60.75 72.0298 60.75 71.8267 60.75C71.6237 60.75 71.4208 60.75 71.2182 60.75C71.0155 60.75 70.8131 60.75 70.6109 60.75C70.4087 60.75 70.2067 60.75 70.0049 60.75C69.8032 60.75 69.6016 60.75 69.4003 60.75C69.1989 60.75 68.9978 60.75 68.7969 60.75C68.596 60.75 68.3953 60.75 68.1949 60.75C67.9944 60.75 67.7942 60.75 67.5942 60.75C67.3942 60.75 67.1944 60.75 66.9948 60.75C66.7952 60.75 66.5958 60.75 66.3967 60.75C66.1976 60.75 65.9987 60.75 65.8 60.75C65.6013 60.75 65.4028 60.75 65.2045 60.75C65.0063 60.75 64.8083 60.75 64.6104 60.75C64.4126 60.75 64.215 60.75 64.0177 60.75C63.8203 60.75 63.6232 60.75 63.4263 60.75C63.2293 60.75 63.0326 60.75 62.8362 60.75C62.6397 60.75 62.4434 60.75 62.2474 60.75C62.0514 60.75 61.8556 60.75 61.66 60.75C61.4644 60.75 61.269 60.75 61.0739 60.75C60.8788 60.75 60.6839 60.75 60.4892 60.75C60.2945 60.75 60.1 60.75 59.9058 60.75C59.7116 60.75 59.5175 60.75 59.3238 60.75C59.13 60.75 58.9364 60.75 58.7431 60.75C58.5497 60.75 58.3566 60.75 58.1637 60.75C57.9709 60.75 57.7782 60.75 57.5858 60.75C57.3933 60.75 57.2011 60.75 57.0092 60.75C56.8172 60.75 56.6254 60.75 56.4339 60.75C56.2424 60.75 56.0511 60.75 55.86 60.75C55.669 60.75 55.4781 60.75 55.2875 60.75C55.0969 60.75 54.9065 60.75 54.7164 60.75C54.5262 60.75 54.3363 60.75 54.1466 60.75C53.9569 60.75 53.7674 60.75 53.5782 60.75C53.3889 60.75 53.1999 60.75 53.0111 60.75C52.8223 60.75 52.6338 60.75 52.4455 60.75C52.2571 60.75 52.069 60.75 51.8812 60.75C51.6933 60.75 51.5057 60.75 51.3183 60.75C51.1309 60.75 50.9437 60.75 50.7568 60.75C50.5698 60.75 50.3831 60.75 50.1967 60.75C50.0102 60.75 49.8239 60.75 49.6379 60.75C49.4519 60.75 49.2661 60.75 49.0806 60.75C48.895 60.75 48.7097 60.75 48.5246 60.75C48.3396 60.75 48.1547 60.75 47.9701 60.75C47.7855 60.75 47.6011 60.75 47.4169 60.75C47.2328 60.75 47.0489 60.75 46.8652 60.75C46.6815 60.75 46.498 60.75 46.3148 60.75C46.1316 60.75 45.9486 60.75 45.7659 60.75C45.5831 60.75 45.4006 60.75 45.2183 60.75C45.0361 60.75 44.854 60.75 44.6722 60.75C44.4904 60.75 44.3088 60.75 44.1275 60.75C43.9462 60.75 43.7651 60.75 43.5842 60.75C43.4033 60.75 43.2227 60.75 43.0423 60.75C42.8619 60.75 42.6818 60.75 42.5019 60.75C42.3219 60.75 42.1423 60.75 41.9628 60.75C41.7834 60.75 41.6042 60.75 41.4252 60.75C41.2462 60.75 41.0675 60.75 40.889 60.75C40.7105 60.75 40.5323 60.75 40.3543 60.75C40.1763 60.75 39.9985 60.75 39.8209 60.75C39.6434 60.75 39.4661 60.75 39.2891 60.75C39.112 60.75 38.9352 60.75 38.7586 60.75C38.582 60.75 38.4057 60.75 38.2296 60.75C38.0535 60.75 37.8776 60.75 37.702 60.75C37.5264 60.75 37.351 60.75 37.1759 60.75C37.0007 60.75 36.8258 60.75 36.6512 60.75C36.4765 60.75 36.3021 60.75 36.1279 60.75C35.9538 60.75 35.7798 60.75 35.6061 60.75C35.4325 60.75 35.259 60.75 35.0858 60.75C34.9126 60.75 34.7396 60.75 34.5669 60.75C34.3942 60.75 34.2217 60.75 34.0495 60.75C33.8773 60.75 33.7053 60.75 33.5335 60.75C33.3618 60.75 33.1903 60.75 33.019 60.75C32.8478 60.75 32.6767 60.75 32.506 60.75C32.3352 60.75 32.1647 60.75 31.9944 60.75C31.8241 60.75 31.6541 60.75 31.4843 60.75C31.3145 60.75 31.145 60.75 30.9757 60.75C30.8064 60.75 30.6373 60.75 30.4685 60.75C30.2997 60.75 30.1311 60.75 29.9628 60.75C29.7945 60.75 29.6264 60.75 29.4586 60.75C29.2908 60.75 29.1232 60.75 28.9559 60.75C28.7886 60.75 28.6215 60.75 28.4546 60.75C28.2878 60.75 28.1212 60.75 27.9549 60.75C27.7885 60.75 27.6225 60.75 27.4566 60.75C27.2908 60.75 27.1252 60.75 26.9598 60.75C26.7945 60.75 26.6294 60.75 26.4645 60.75C26.2997 60.75 26.1351 60.75 25.9708 60.75C25.8064 60.75 25.6423 60.75 25.4785 60.75C25.3146 60.75 25.151 60.75 24.9877 60.75C24.8243 60.75 24.6612 60.75 24.4984 60.75C24.3355 60.75 24.1729 60.75 24.0106 60.75C23.8482 60.75 23.6861 60.75 23.5243 60.75C23.3624 60.75 23.2009 60.75 23.0395 60.75C22.8782 60.75 22.7171 60.75 22.5563 60.75C22.3954 60.75 22.2348 60.75 22.0745 60.75C21.9142 60.75 21.7541 60.75 21.5943 60.75C21.4344 60.75 21.2749 60.75 21.1155 60.75C20.9562 60.75 20.7972 60.75 20.6383 60.75C20.4795 60.75 20.321 60.75 20.1627 60.75C20.0044 60.75 19.8463 60.75 19.6885 60.75C19.5307 60.75 19.3732 60.75 19.2159 60.75C19.0586 60.75 18.9016 60.75 18.7448 60.75C18.588 60.75 18.4315 60.75 18.2752 60.75C18.119 60.75 17.963 60.75 17.8072 60.75C17.6515 60.75 17.496 60.75 17.3407 60.75C17.1855 60.75 17.0305 60.75 16.8758 60.75C16.7211 60.75 16.5666 60.75 16.4124 60.75C16.2582 60.75 16.1042 60.75 15.9505 60.75C15.7968 60.75 15.6434 60.75 15.4902 60.75C15.337 60.75 15.1841 60.75 15.0314 60.75C14.8788 60.75 14.7264 60.75 14.5742 60.75C14.4221 60.75 14.2702 60.75 14.1185 60.75C13.9669 60.75 13.8155 60.75 13.6644 60.75C13.5133 60.75 13.3625 60.75 13.2119 60.75C13.0613 60.75 12.911 60.75 12.7609 60.75C12.6108 60.75 12.461 60.75 12.3115 60.75C12.1619 60.75 12.0126 60.75 11.8636 60.75C11.7146 60.75 11.5658 60.75 11.4173 60.75C11.2688 60.75 11.1205 60.75 10.9726 60.75C10.8246 60.75 10.6769 60.75 10.5294 60.75C10.382 60.75 10.2348 60.75 10.0878 60.75C9.9409 60.75 9.79423 60.75 9.64782 60.75C9.50142 60.75 9.35528 60.75 9.2094 60.75C9.06352 60.75 8.9179 60.75 8.77255 60.75C8.6272 60.75 8.48211 60.75 8.33729 60.75C8.19247 60.75 8.04791 60.75 7.90362 60.75C7.75932 60.75 7.61529 60.75 7.47153 60.75C7.32776 60.75 7.18427 60.75 7.04103 60.75C6.8978 60.75 6.75483 60.75 6.61213 60.75C6.46943 60.75 6.32699 60.75 6.18482 60.75C6.04265 60.75 5.90075 60.75 5.75911 60.75C5.61747 60.75 5.4761 60.75 5.335 60.75C5.1939 60.75 5.05306 60.75 4.91249 60.75C4.77192 60.75 4.63162 60.75 4.49159 60.75C4.35156 60.75 4.21179 60.75 4.07229 60.75C3.9328 60.75 3.79357 60.75 3.65461 60.75C3.51565 60.75 3.37695 60.75 3.23853 60.75C3.10011 60.75 2.96195 60.75 2.82407 60.75C2.68619 60.75 2.54857 60.75 2.41123 60.75C2.27388 60.75 2.13681 60.75 2 60.75V63.25C2.13681 63.25 2.27388 63.25 2.41123 63.25C2.54857 63.25 2.68619 63.25 2.82407 63.25C2.96195 63.25 3.10011 63.25 3.23853 63.25C3.37695 63.25 3.51565 63.25 3.65461 63.25C3.79357 63.25 3.9328 63.25 4.07229 63.25C4.21179 63.25 4.35156 63.25 4.49159 63.25C4.63162 63.25 4.77192 63.25 4.91249 63.25C5.05306 63.25 5.1939 63.25 5.335 63.25C5.4761 63.25 5.61747 63.25 5.75911 63.25C5.90075 63.25 6.04265 63.25 6.18482 63.25C6.32699 63.25 6.46943 63.25 6.61213 63.25C6.75483 63.25 6.8978 63.25 7.04103 63.25C7.18427 63.25 7.32776 63.25 7.47153 63.25C7.61529 63.25 7.75932 63.25 7.90362 63.25C8.04791 63.25 8.19247 63.25 8.33729 63.25C8.48211 63.25 8.6272 63.25 8.77255 63.25C8.9179 63.25 9.06352 63.25 9.2094 63.25C9.35528 63.25 9.50142 63.25 9.64782 63.25C9.79423 63.25 9.9409 63.25 10.0878 63.25C10.2348 63.25 10.382 63.25 10.5294 63.25C10.6769 63.25 10.8246 63.25 10.9726 63.25C11.1205 63.25 11.2688 63.25 11.4173 63.25C11.5658 63.25 11.7146 63.25 11.8636 63.25C12.0126 63.25 12.1619 63.25 12.3115 63.25C12.461 63.25 12.6108 63.25 12.7609 63.25C12.911 63.25 13.0613 63.25 13.2119 63.25C13.3625 63.25 13.5133 63.25 13.6644 63.25C13.8155 63.25 13.9669 63.25 14.1185 63.25C14.2702 63.25 14.4221 63.25 14.5742 63.25C14.7264 63.25 14.8788 63.25 15.0314 63.25C15.1841 63.25 15.337 63.25 15.4902 63.25C15.6434 63.25 15.7968 63.25 15.9505 63.25C16.1042 63.25 16.2582 63.25 16.4124 63.25C16.5666 63.25 16.7211 63.25 16.8758 63.25C17.0305 63.25 17.1855 63.25 17.3407 63.25C17.496 63.25 17.6515 63.25 17.8072 63.25C17.963 63.25 18.119 63.25 18.2752 63.25C18.4315 63.25 18.588 63.25 18.7448 63.25C18.9016 63.25 19.0586 63.25 19.2159 63.25C19.3732 63.25 19.5307 63.25 19.6885 63.25C19.8463 63.25 20.0044 63.25 20.1627 63.25C20.321 63.25 20.4795 63.25 20.6383 63.25C20.7972 63.25 20.9562 63.25 21.1155 63.25C21.2749 63.25 21.4344 63.25 21.5943 63.25C21.7541 63.25 21.9142 63.25 22.0745 63.25C22.2348 63.25 22.3954 63.25 22.5563 63.25C22.7171 63.25 22.8782 63.25 23.0395 63.25C23.2009 63.25 23.3624 63.25 23.5243 63.25C23.6861 63.25 23.8482 63.25 24.0106 63.25C24.1729 63.25 24.3355 63.25 24.4984 63.25C24.6612 63.25 24.8243 63.25 24.9877 63.25C25.151 63.25 25.3146 63.25 25.4785 63.25C25.6423 63.25 25.8064 63.25 25.9708 63.25C26.1351 63.25 26.2997 63.25 26.4645 63.25C26.6294 63.25 26.7945 63.25 26.9598 63.25C27.1252 63.25 27.2908 63.25 27.4566 63.25C27.6225 63.25 27.7885 63.25 27.9549 63.25C28.1212 63.25 28.2878 63.25 28.4546 63.25C28.6215 63.25 28.7886 63.25 28.9559 63.25C29.1232 63.25 29.2908 63.25 29.4586 63.25C29.6264 63.25 29.7945 63.25 29.9628 63.25C30.1311 63.25 30.2997 63.25 30.4685 63.25C30.6373 63.25 30.8064 63.25 30.9757 63.25C31.145 63.25 31.3145 63.25 31.4843 63.25C31.6541 63.25 31.8241 63.25 31.9944 63.25C32.1647 63.25 32.3352 63.25 32.506 63.25C32.6767 63.25 32.8478 63.25 33.019 63.25C33.1903 63.25 33.3618 63.25 33.5335 63.25C33.7053 63.25 33.8773 63.25 34.0495 63.25C34.2217 63.25 34.3942 63.25 34.5669 63.25C34.7396 63.25 34.9126 63.25 35.0858 63.25C35.259 63.25 35.4325 63.25 35.6061 63.25C35.7798 63.25 35.9538 63.25 36.1279 63.25C36.3021 63.25 36.4765 63.25 36.6512 63.25C36.8258 63.25 37.0007 63.25 37.1759 63.25C37.351 63.25 37.5264 63.25 37.702 63.25C37.8776 63.25 38.0535 63.25 38.2296 63.25C38.4057 63.25 38.582 63.25 38.7586 63.25C38.9352 63.25 39.112 63.25 39.2891 63.25C39.4661 63.25 39.6434 63.25 39.8209 63.25C39.9985 63.25 40.1763 63.25 40.3543 63.25C40.5323 63.25 40.7105 63.25 40.889 63.25C41.0675 63.25 41.2462 63.25 41.4252 63.25C41.6042 63.25 41.7834 63.25 41.9628 63.25C42.1423 63.25 42.3219 63.25 42.5019 63.25C42.6818 63.25 42.8619 63.25 43.0423 63.25C43.2227 63.25 43.4033 63.25 43.5842 63.25C43.7651 63.25 43.9462 63.25 44.1275 63.25C44.3088 63.25 44.4904 63.25 44.6722 63.25C44.854 63.25 45.0361 63.25 45.2183 63.25C45.4006 63.25 45.5831 63.25 45.7659 63.25C45.9486 63.25 46.1316 63.25 46.3148 63.25C46.498 63.25 46.6815 63.25 46.8652 63.25C47.0489 63.25 47.2328 63.25 47.4169 63.25C47.6011 63.25 47.7855 63.25 47.9701 63.25C48.1547 63.25 48.3396 63.25 48.5246 63.25C48.7097 63.25 48.895 63.25 49.0806 63.25C49.2661 63.25 49.4519 63.25 49.6379 63.25C49.8239 63.25 50.0102 63.25 50.1967 63.25C50.3831 63.25 50.5698 63.25 50.7568 63.25C50.9437 63.25 51.1309 63.25 51.3183 63.25C51.5057 63.25 51.6933 63.25 51.8812 63.25C52.069 63.25 52.2571 63.25 52.4455 63.25C52.6338 63.25 52.8223 63.25 53.0111 63.25C53.1999 63.25 53.3889 63.25 53.5782 63.25C53.7674 63.25 53.9569 63.25 54.1466 63.25C54.3363 63.25 54.5262 63.25 54.7164 63.25C54.9065 63.25 55.0969 63.25 55.2875 63.25C55.4781 63.25 55.669 63.25 55.86 63.25C56.0511 63.25 56.2424 63.25 56.4339 63.25C56.6254 63.25 56.8172 63.25 57.0092 63.25C57.2011 63.25 57.3933 63.25 57.5858 63.25C57.7782 63.25 57.9709 63.25 58.1637 63.25C58.3566 63.25 58.5497 63.25 58.7431 63.25C58.9364 63.25 59.13 63.25 59.3238 63.25C59.5175 63.25 59.7116 63.25 59.9058 63.25C60.1 63.25 60.2945 63.25 60.4892 63.25C60.6839 63.25 60.8788 63.25 61.0739 63.25C61.269 63.25 61.4644 63.25 61.66 63.25C61.8556 63.25 62.0514 63.25 62.2474 63.25C62.4434 63.25 62.6397 63.25 62.8362 63.25C63.0326 63.25 63.2293 63.25 63.4263 63.25C63.6232 63.25 63.8203 63.25 64.0177 63.25C64.215 63.25 64.4126 63.25 64.6104 63.25C64.8083 63.25 65.0063 63.25 65.2045 63.25C65.4028 63.25 65.6013 63.25 65.8 63.25C65.9987 63.25 66.1976 63.25 66.3967 63.25C66.5958 63.25 66.7952 63.25 66.9948 63.25C67.1944 63.25 67.3942 63.25 67.5942 63.25C67.7942 63.25 67.9944 63.25 68.1949 63.25C68.3953 63.25 68.596 63.25 68.7969 63.25C68.9978 63.25 69.1989 63.25 69.4003 63.25C69.6016 63.25 69.8032 63.25 70.0049 63.25C70.2067 63.25 70.4087 63.25 70.6109 63.25C70.8131 63.25 71.0155 63.25 71.2182 63.25C71.4208 63.25 71.6237 63.25 71.8267 63.25C72.0298 63.25 72.2331 63.25 72.4366 63.25C72.6401 63.25 72.8439 63.25 73.0478 63.25C73.2517 63.25 73.4559 63.25 73.6603 63.25C73.8647 63.25 74.0693 63.25 74.2741 63.25C74.4789 63.25 74.6839 63.25 74.8891 63.25C75.0944 63.25 75.2998 63.25 75.5055 63.25C75.7112 63.25 75.917 63.25 76.1231 63.25C76.3292 63.25 76.5355 63.25 76.7421 63.25C76.9486 63.25 77.1553 63.25 77.3623 63.25C77.5692 63.25 77.7764 63.25 77.9838 63.25C78.1912 63.25 78.3988 63.25 78.6066 63.25C78.8144 63.25 79.0224 63.25 79.2306 63.25C79.4389 63.25 79.6473 63.25 79.8559 63.25C80.0646 63.25 80.2735 63.25 80.4826 63.25C80.6916 63.25 80.9009 63.25 81.1104 63.25C81.3199 63.25 81.5296 63.25 81.7396 63.25C81.9495 63.25 82.1596 63.25 82.37 63.25C82.5803 63.25 82.7909 63.25 83.0016 63.25C83.2124 63.25 83.4234 63.25 83.6346 63.25C83.8457 63.25 84.0571 63.25 84.2687 63.25C84.4804 63.25 84.6922 63.25 84.9042 63.25C85.1162 63.25 85.3284 63.25 85.5409 63.25C85.7533 63.25 85.966 63.25 86.1788 63.25C86.3917 63.25 86.6048 63.25 86.818 63.25C87.0313 63.25 87.2448 63.25 87.4585 63.25C87.6722 63.25 87.8861 63.25 88.1002 63.25C88.3143 63.25 88.5286 63.25 88.7431 63.25C88.9576 63.25 89.1723 63.25 89.3873 63.25C89.6022 63.25 89.8173 63.25 90.0327 63.25C90.248 63.25 90.4635 63.25 90.6793 63.25C90.8951 63.25 91.111 63.25 91.3272 63.25C91.5433 63.25 91.7597 63.25 91.9763 63.25C92.1928 63.25 92.4096 63.25 92.6266 63.25C92.8436 63.25 93.0608 63.25 93.2782 63.25C93.4955 63.25 93.7131 63.25 93.9309 63.25C94.1487 63.25 94.3667 63.25 94.5849 63.25C94.8031 63.25 95.0215 63.25 95.2402 63.25C95.4588 63.25 95.6776 63.25 95.8966 63.25C96.1156 63.25 96.3348 63.25 96.5542 63.25C96.7736 63.25 96.9933 63.25 97.2131 63.25C97.4329 63.25 97.6529 63.25 97.8732 63.25C98.0934 63.25 98.3138 63.25 98.5344 63.25C98.7551 63.25 98.9759 63.25 99.1969 63.25C99.4179 63.25 99.6392 63.25 99.8606 63.25C100.082 63.25 100.304 63.25 100.525 63.25C100.747 63.25 100.969 63.25 101.192 63.25C101.414 63.25 101.636 63.25 101.859 63.25C102.081 63.25 102.304 63.25 102.527 63.25C102.75 63.25 102.974 63.25 103.197 63.25C103.42 63.25 103.644 63.25 103.868 63.25C104.092 63.25 104.316 63.25 104.54 63.25C104.764 63.25 104.988 63.25 105.213 63.25C105.438 63.25 105.662 63.25 105.887 63.25C106.112 63.25 106.338 63.25 106.563 63.25C106.788 63.25 107.014 63.25 107.24 63.25C107.465 63.25 107.691 63.25 107.918 63.25C108.144 63.25 108.37 63.25 108.597 63.25C108.823 63.25 109.05 63.25 109.277 63.25C109.504 63.25 109.731 63.25 109.958 63.25C110.186 63.25 110.413 63.25 110.641 63.25C110.869 63.25 111.097 63.25 111.325 63.25C111.553 63.25 111.781 63.25 112.01 63.25C112.238 63.25 112.467 63.25 112.696 63.25C112.925 63.25 113.154 63.25 113.383 63.25C113.612 63.25 113.842 63.25 114.071 63.25C114.301 63.25 114.531 63.25 114.761 63.25C114.991 63.25 115.221 63.25 115.452 63.25C115.682 63.25 115.913 63.25 116.143 63.25C116.374 63.25 116.605 63.25 116.836 63.25C117.068 63.25 117.299 63.25 117.53 63.25C117.762 63.25 117.994 63.25 118.226 63.25C118.458 63.25 118.69 63.25 118.922 63.25C119.154 63.25 119.387 63.25 119.62 63.25C119.852 63.25 120.085 63.25 120.318 63.25C120.551 63.25 120.785 63.25 121.018 63.25C121.252 63.25 121.485 63.25 121.719 63.25C121.953 63.25 122.187 63.25 122.421 63.25C122.655 63.25 122.89 63.25 123.124 63.25C123.359 63.25 123.593 63.25 123.828 63.25C124.063 63.25 124.298 63.25 124.534 63.25C124.769 63.25 125.005 63.25 125.24 63.25C125.476 63.25 125.712 63.25 125.948 63.25C126.184 63.25 126.42 63.25 126.657 63.25C126.893 63.25 127.13 63.25 127.367 63.25C127.603 63.25 127.84 63.25 128.077 63.25C128.315 63.25 128.552 63.25 128.789 63.25C129.027 63.25 129.265 63.25 129.503 63.25C129.741 63.25 129.979 63.25 130.217 63.25C130.455 63.25 130.694 63.25 130.932 63.25C131.171 63.25 131.41 63.25 131.649 63.25C131.888 63.25 132.127 63.25 132.366 63.25C132.606 63.25 132.845 63.25 133.085 63.25C133.325 63.25 133.564 63.25 133.805 63.25C134.045 63.25 134.285 63.25 134.525 63.25C134.766 63.25 135.006 63.25 135.247 63.25C135.488 63.25 135.729 63.25 135.97 63.25C136.211 63.25 136.453 63.25 136.694 63.25C136.936 63.25 137.177 63.25 137.419 63.25C137.661 63.25 137.903 63.25 138.145 63.25C138.388 63.25 138.63 63.25 138.873 63.25C139.115 63.25 139.358 63.25 139.601 63.25C139.844 63.25 140.087 63.25 140.33 63.25C140.574 63.25 140.817 63.25 141.061 63.25C141.305 63.25 141.548 63.25 141.792 63.25C142.036 63.25 142.281 63.25 142.525 63.25C142.769 63.25 143.014 63.25 143.259 63.25C143.503 63.25 143.748 63.25 143.993 63.25C144.238 63.25 144.484 63.25 144.729 63.25C144.974 63.25 145.22 63.25 145.466 63.25C145.712 63.25 145.958 63.25 146.204 63.25C146.45 63.25 146.696 63.25 146.943 63.25C147.189 63.25 147.436 63.25 147.682 63.25C147.929 63.25 148.176 63.25 148.423 63.25C148.671 63.25 148.918 63.25 149.165 63.25C149.413 63.25 149.661 63.25 149.908 63.25C150.156 63.25 150.404 63.25 150.652 63.25C150.901 63.25 151.149 63.25 151.398 63.25C151.646 63.25 151.895 63.25 152.144 63.25C152.393 63.25 152.642 63.25 152.891 63.25C153.14 63.25 153.389 63.25 153.639 63.25C153.889 63.25 154.138 63.25 154.388 63.25C154.638 63.25 154.888 63.25 155.138 63.25C155.389 63.25 155.639 63.25 155.89 63.25C156.14 63.25 156.391 63.25 156.642 63.25C156.893 63.25 157.144 63.25 157.395 63.25C157.646 63.25 157.898 63.25 158.149 63.25C158.401 63.25 158.653 63.25 158.905 63.25C159.157 63.25 159.409 63.25 159.661 63.25C159.913 63.25 160.166 63.25 160.418 63.25C160.671 63.25 160.924 63.25 161.177 63.25C161.43 63.25 161.683 63.25 161.936 63.25C162.189 63.25 162.443 63.25 162.696 63.25C162.95 63.25 163.204 63.25 163.457 63.25C163.711 63.25 163.965 63.25 164.22 63.25C164.474 63.25 164.728 63.25 164.983 63.25C165.238 63.25 165.492 63.25 165.747 63.25C166.002 63.25 166.257 63.25 166.512 63.25C166.768 63.25 167.023 63.25 167.279 63.25C167.534 63.25 167.79 63.25 168.046 63.25C168.302 63.25 168.558 63.25 168.814 63.25C169.07 63.25 169.327 63.25 169.583 63.25C169.84 63.25 170.096 63.25 170.353 63.25C170.61 63.25 170.867 63.25 171.124 63.25C171.382 63.25 171.639 63.25 171.896 63.25C172.154 63.25 172.412 63.25 172.669 63.25C172.927 63.25 173.185 63.25 173.443 63.25C173.702 63.25 173.96 63.25 174.218 63.25C174.477 63.25 174.735 63.25 174.994 63.25C175.253 63.25 175.512 63.25 175.771 63.25C176.03 63.25 176.29 63.25 176.549 63.25C176.808 63.25 177.068 63.25 177.328 63.25C177.587 63.25 177.847 63.25 178.107 63.25C178.367 63.25 178.628 63.25 178.888 63.25C179.148 63.25 179.409 63.25 179.67 63.25C179.93 63.25 180.191 63.25 180.452 63.25C180.713 63.25 180.974 63.25 181.236 63.25C181.497 63.25 181.758 63.25 182.02 63.25C182.282 63.25 182.544 63.25 182.805 63.25C183.067 63.25 183.329 63.25 183.592 63.25C183.854 63.25 184.116 63.25 184.379 63.25C184.642 63.25 184.904 63.25 185.167 63.25C185.43 63.25 185.693 63.25 185.956 63.25C186.219 63.25 186.483 63.25 186.746 63.25C187.01 63.25 187.273 63.25 187.537 63.25C187.801 63.25 188.065 63.25 188.329 63.25C188.593 63.25 188.857 63.25 189.122 63.25C189.386 63.25 189.651 63.25 189.915 63.25C190.18 63.25 190.445 63.25 190.71 63.25C190.975 63.25 191.24 63.25 191.505 63.25C191.771 63.25 192.036 63.25 192.302 63.25C192.567 63.25 192.833 63.25 193.099 63.25C193.365 63.25 193.631 63.25 193.897 63.25C194.164 63.25 194.43 63.25 194.696 63.25C194.963 63.25 195.23 63.25 195.496 63.25C195.763 63.25 196.03 63.25 196.297 63.25C196.564 63.25 196.832 63.25 197.099 63.25C197.366 63.25 197.634 63.25 197.902 63.25C198.169 63.25 198.437 63.25 198.705 63.25C198.973 63.25 199.241 63.25 199.51 63.25C199.778 63.25 200.046 63.25 200.315 63.25C200.584 63.25 200.852 63.25 201.121 63.25C201.39 63.25 201.659 63.25 201.928 63.25C202.198 63.25 202.467 63.25 202.736 63.25C203.006 63.25 203.275 63.25 203.545 63.25C203.815 63.25 204.085 63.25 204.355 63.25C204.625 63.25 204.895 63.25 205.166 63.25C205.436 63.25 205.706 63.25 205.977 63.25C206.248 63.25 206.518 63.25 206.789 63.25C207.06 63.25 207.331 63.25 207.602 63.25C207.874 63.25 208.145 63.25 208.417 63.25C208.688 63.25 208.96 63.25 209.231 63.25C209.503 63.25 209.775 63.25 210.047 63.25C210.319 63.25 210.591 63.25 210.864 63.25C211.136 63.25 211.409 63.25 211.681 63.25C211.954 63.25 212.227 63.25 212.5 63.25C212.772 63.25 213.045 63.25 213.319 63.25C213.592 63.25 213.865 63.25 214.139 63.25C214.412 63.25 214.686 63.25 214.96 63.25C215.233 63.25 215.507 63.25 215.781 63.25C216.055 63.25 216.329 63.25 216.604 63.25C216.878 63.25 217.152 63.25 217.427 63.25C217.702 63.25 217.976 63.25 218.251 63.25C218.526 63.25 218.801 63.25 219.076 63.25C219.351 63.25 219.627 63.25 219.902 63.25C220.177 63.25 220.453 63.25 220.729 63.25C221.004 63.25 221.28 63.25 221.556 63.25C221.832 63.25 222.108 63.25 222.384 63.25C222.661 63.25 222.937 63.25 223.214 63.25C223.49 63.25 223.767 63.25 224.044 63.25C224.32 63.25 224.597 63.25 224.874 63.25C225.151 63.25 225.429 63.25 225.706 63.25C225.983 63.25 226.261 63.25 226.538 63.25C226.816 63.25 227.094 63.25 227.371 63.25C227.649 63.25 227.927 63.25 228.205 63.25C228.484 63.25 228.762 63.25 229.04 63.25C229.319 63.25 229.597 63.25 229.876 63.25C230.154 63.25 230.433 63.25 230.712 63.25C230.991 63.25 231.27 63.25 231.549 63.25C231.828 63.25 232.108 63.25 232.387 63.25C232.667 63.25 232.946 63.25 233.226 63.25C233.506 63.25 233.786 63.25 234.066 63.25C234.346 63.25 234.626 63.25 234.906 63.25C235.186 63.25 235.466 63.25 235.747 63.25C236.027 63.25 236.308 63.25 236.589 63.25C236.87 63.25 237.151 63.25 237.432 63.25C237.713 63.25 237.994 63.25 238.275 63.25C238.556 63.25 238.838 63.25 239.119 63.25C239.401 63.25 239.682 63.25 239.964 63.25C240.246 63.25 240.528 63.25 240.81 63.25C241.092 63.25 241.374 63.25 241.656 63.25C241.939 63.25 242.221 63.25 242.504 63.25C242.786 63.25 243.069 63.25 243.352 63.25C243.635 63.25 243.918 63.25 244.201 63.25C244.484 63.25 244.767 63.25 245.05 63.25C245.334 63.25 245.617 63.25 245.901 63.25C246.184 63.25 246.468 63.25 246.752 63.25C247.035 63.25 247.319 63.25 247.603 63.25C247.887 63.25 248.172 63.25 248.456 63.25C248.74 63.25 249.025 63.25 249.309 63.25C249.594 63.25 249.879 63.25 250.163 63.25C250.448 63.25 250.733 63.25 251.018 63.25C251.303 63.25 251.588 63.25 251.874 63.25C252.159 63.25 252.444 63.25 252.73 63.25C253.016 63.25 253.301 63.25 253.587 63.25C253.873 63.25 254.159 63.25 254.445 63.25C254.731 63.25 255.017 63.25 255.303 63.25C255.589 63.25 255.876 63.25 256.162 63.25C256.449 63.25 256.736 63.25 257.022 63.25C257.309 63.25 257.596 63.25 257.883 63.25C258.17 63.25 258.457 63.25 258.744 63.25C259.032 63.25 259.319 63.25 259.606 63.25C259.894 63.25 260.181 63.25 260.469 63.25C260.757 63.25 261.045 63.25 261.333 63.25C261.621 63.25 261.909 63.25 262.197 63.25C262.485 63.25 262.773 63.25 263.062 63.25C263.35 63.25 263.639 63.25 263.927 63.25C264.216 63.25 264.505 63.25 264.794 63.25C265.083 63.25 265.372 63.25 265.661 63.25C265.95 63.25 266.239 63.25 266.529 63.25C266.818 63.25 267.107 63.25 267.397 63.25C267.687 63.25 267.976 63.25 268.266 63.25C268.556 63.25 268.846 63.25 269.136 63.25C269.426 63.25 269.716 63.25 270.006 63.25C270.297 63.25 270.587 63.25 270.878 63.25C271.168 63.25 271.459 63.25 271.749 63.25C272.04 63.25 272.331 63.25 272.622 63.25C272.913 63.25 273.204 63.25 273.495 63.25C273.786 63.25 274.078 63.25 274.369 63.25C274.661 63.25 274.952 63.25 275.244 63.25C275.535 63.25 275.827 63.25 276.119 63.25C276.411 63.25 276.703 63.25 276.995 63.25C277.287 63.25 277.579 63.25 277.872 63.25C278.164 63.25 278.456 63.25 278.749 63.25C279.041 63.25 279.334 63.25 279.627 63.25C279.919 63.25 280.212 63.25 280.505 63.25C280.798 63.25 281.091 63.25 281.385 63.25C281.678 63.25 281.971 63.25 282.264 63.25C282.558 63.25 282.851 63.25 283.145 63.25C283.439 63.25 283.732 63.25 284.026 63.25C284.32 63.25 284.614 63.25 284.908 63.25C285.202 63.25 285.496 63.25 285.791 63.25C286.085 63.25 286.379 63.25 286.674 63.25C286.968 63.25 287.263 63.25 287.558 63.25C287.852 63.25 288.147 63.25 288.442 63.25C288.737 63.25 289.032 63.25 289.327 63.25C289.622 63.25 289.917 63.25 290.213 63.25C290.508 63.25 290.804 63.25 291.099 63.25C291.395 63.25 291.69 63.25 291.986 63.25C292.282 63.25 292.578 63.25 292.874 63.25C293.17 63.25 293.466 63.25 293.762 63.25C294.058 63.25 294.354 63.25 294.651 63.25C294.947 63.25 295.244 63.25 295.54 63.25C295.837 63.25 296.134 63.25 296.43 63.25C296.727 63.25 297.024 63.25 297.321 63.25C297.618 63.25 297.915 63.25 298.212 63.25C298.51 63.25 298.807 63.25 299.104 63.25C299.402 63.25 299.699 63.25 299.997 63.25C300.294 63.25 300.592 63.25 300.89 63.25C301.188 63.25 301.486 63.25 301.784 63.25C302.082 63.25 302.38 63.25 302.678 63.25C302.976 63.25 303.275 63.25 303.573 63.25C303.871 63.25 304.17 63.25 304.469 63.25C304.767 63.25 305.066 63.25 305.365 63.25C305.664 63.25 305.962 63.25 306.261 63.25C306.56 63.25 306.86 63.25 307.159 63.25C307.458 63.25 307.757 63.25 308.057 63.25C308.356 63.25 308.656 63.25 308.955 63.25C309.255 63.25 309.555 63.25 309.854 63.25C310.154 63.25 310.454 63.25 310.754 63.25C311.054 63.25 311.354 63.25 311.654 63.25C311.954 63.25 312.255 63.25 312.555 63.25C312.855 63.25 313.156 63.25 313.456 63.25C313.757 63.25 314.058 63.25 314.358 63.25C314.659 63.25 314.96 63.25 315.261 63.25C315.562 63.25 315.863 63.25 316.164 63.25C316.465 63.25 316.766 63.25 317.068 63.25C317.369 63.25 317.671 63.25 317.972 63.25C318.274 63.25 318.575 63.25 318.877 63.25C319.179 63.25 319.48 63.25 319.782 63.25C320.084 63.25 320.386 63.25 320.688 63.25C320.99 63.25 321.292 63.25 321.595 63.25C321.897 63.25 322.199 63.25 322.502 63.25C322.804 63.25 323.107 63.25 323.409 63.25C323.712 63.25 324.014 63.25 324.317 63.25C324.62 63.25 324.923 63.25 325.226 63.25C325.529 63.25 325.832 63.25 326.135 63.25C326.438 63.25 326.742 63.25 327.045 63.25C327.348 63.25 327.652 63.25 327.955 63.25C328.259 63.25 328.562 63.25 328.866 63.25C329.17 63.25 329.473 63.25 329.777 63.25C330.081 63.25 330.385 63.25 330.689 63.25C330.993 63.25 331.297 63.25 331.602 63.25C331.906 63.25 332.21 63.25 332.515 63.25C332.819 63.25 333.123 63.25 333.428 63.25C333.733 63.25 334.037 63.25 334.342 63.25C334.647 63.25 334.952 63.25 335.256 63.25C335.561 63.25 335.866 63.25 336.171 63.25C336.477 63.25 336.782 63.25 337.087 63.25C337.392 63.25 337.698 63.25 338.003 63.25C338.308 63.25 338.614 63.25 338.919 63.25C339.225 63.25 339.531 63.25 339.837 63.25C340.142 63.25 340.448 63.25 340.754 63.25C341.06 63.25 341.366 63.25 341.672 63.25C341.978 63.25 342.284 63.25 342.591 63.25C342.897 63.25 343.203 63.25 343.51 63.25C343.816 63.25 344.123 63.25 344.429 63.25C344.736 63.25 345.043 63.25 345.349 63.25C345.656 63.25 345.963 63.25 346.27 63.25C346.577 63.25 346.884 63.25 347.191 63.25C347.498 63.25 347.805 63.25 348.112 63.25C348.42 63.25 348.727 63.25 349.034 63.25C349.342 63.25 349.649 63.25 349.957 63.25C350.264 63.25 350.572 63.25 350.88 63.25C351.187 63.25 351.495 63.25 351.803 63.25C352.111 63.25 352.419 63.25 352.727 63.25C353.035 63.25 353.343 63.25 353.651 63.25C353.96 63.25 354.268 63.25 354.576 63.25C354.885 63.25 355.193 63.25 355.502 63.25C355.81 63.25 356.119 63.25 356.427 63.25C356.736 63.25 357.045 63.25 357.354 63.25C357.662 63.25 357.971 63.25 358.28 63.25C358.589 63.25 358.898 63.25 359.207 63.25C359.516 63.25 359.826 63.25 360.135 63.25C360.444 63.25 360.754 63.25 361.063 63.25C361.372 63.25 361.682 63.25 361.991 63.25C362.301 63.25 362.611 63.25 362.92 63.25C363.23 63.25 363.54 63.25 363.85 63.25C364.16 63.25 364.47 63.25 364.78 63.25C365.09 63.25 365.4 63.25 365.71 63.25C366.02 63.25 366.33 63.25 366.641 63.25C366.951 63.25 367.261 63.25 367.572 63.25C367.882 63.25 368.193 63.25 368.503 63.25C368.814 63.25 369.125 63.25 369.435 63.25C369.746 63.25 370.057 63.25 370.368 63.25C370.679 63.25 370.99 63.25 371.301 63.25C371.612 63.25 371.923 63.25 372.234 63.25V60.75Z" fill="#34B3CF"/>
</svg>